<?xml version="1.0" encoding="UTF-8"?>
<svg version="1.1" xmlns="http://www.w3.org/2000/svg" width="512" height="512">
<path d="M0 0 C168.96 0 337.92 0 512 0 C512 168.96 512 337.92 512 512 C343.04 512 174.08 512 0 512 C0 343.04 0 174.08 0 0 Z " fill="#FEFEFE" transform="translate(0,0)"/>
<path d="M0 0 C10.5116144 8.55124902 16.51252277 17.68609889 19.4296875 30.9765625 C19.80580638 35.0086787 19.80609469 38.99245938 19.7421875 43.0390625 C19.74541016 44.06322266 19.74863281 45.08738281 19.75195312 46.14257812 C19.66790597 58.10019585 16.97299982 65.93868998 10.4296875 75.9765625 C10.03910156 76.58757812 9.64851563 77.19859375 9.24609375 77.828125 C3.28796553 85.99054242 -8.59308407 91.64121363 -18.35375977 93.50927734 C-23.62505624 94.27506569 -28.8768591 94.20241515 -34.1953125 94.2265625 C-35.30777344 94.2471875 -36.42023438 94.2678125 -37.56640625 94.2890625 C-51.92188392 94.35590989 -64.55553688 90.77596907 -75.3203125 80.9765625 C-85.37916005 70.32176887 -88.92519291 56.98016412 -88.8828125 42.6640625 C-88.89892578 41.58705078 -88.91503906 40.51003906 -88.93164062 39.40039062 C-88.94004901 25.51815037 -84.31584051 14.98857837 -74.9453125 4.7265625 C-56.21353715 -12.88419927 -21.04290617 -15.03064727 0 0 Z " fill="#F8F7F7" transform="translate(123.5703125,211.0234375)"/>
<path d="M0 0 C48.85714286 0 48.85714286 0 57.6875 7.1875 C62.09114905 12.54328939 63.50975589 17.95460245 63.21484375 24.84375 C62.51069657 31.91082714 59.82425782 36.91901893 55 42 C49.03103507 46.86313564 41.71556515 50 34 50 C39.0508243 57.2023839 44.42097741 64.0656667 49.99536133 70.86523438 C53.68214615 75.36508454 57.30210774 79.90931424 60.875 84.5 C64.3915735 89.01679271 68.00064517 93.41054469 71.85546875 97.64453125 C73 99 73 99 73 100 C58.25494551 101.50801694 58.25494551 101.50801694 53.51171875 98.3359375 C51.43054576 95.67096652 49.7358222 92.90240716 48 90 C46.15937617 87.41634614 44.23320456 84.89943344 42.3125 82.375 C41.81000732 81.70106201 41.30751465 81.02712402 40.78979492 80.33276367 C35.51726784 73.26815815 29.97807092 66.4197952 24.33203125 59.65087891 C23.15235455 58.18882359 22.06792332 56.65103746 21 55.10546875 C18.77919444 52.34453414 18.77919444 52.34453414 13 52 C13.33 67.84 13.66 83.68 14 100 C9.38 100 4.76 100 0 100 C0 67 0 34 0 0 Z " fill="#050505" transform="translate(317,204)"/>
<path d="M0 0 C10.5116144 8.55124902 16.51252277 17.68609889 19.4296875 30.9765625 C19.80580638 35.0086787 19.80609469 38.99245938 19.7421875 43.0390625 C19.74541016 44.06322266 19.74863281 45.08738281 19.75195312 46.14257812 C19.66790597 58.10019585 16.97299982 65.93868998 10.4296875 75.9765625 C10.03910156 76.58757812 9.64851563 77.19859375 9.24609375 77.828125 C3.28796553 85.99054242 -8.59308407 91.64121363 -18.35375977 93.50927734 C-23.62505624 94.27506569 -28.8768591 94.20241515 -34.1953125 94.2265625 C-35.30777344 94.2471875 -36.42023438 94.2678125 -37.56640625 94.2890625 C-51.92188392 94.35590989 -64.55553688 90.77596907 -75.3203125 80.9765625 C-85.37916005 70.32176887 -88.92519291 56.98016412 -88.8828125 42.6640625 C-88.89892578 41.58705078 -88.91503906 40.51003906 -88.93164062 39.40039062 C-88.94004901 25.51815037 -84.31584051 14.98857837 -74.9453125 4.7265625 C-56.21353715 -12.88419927 -21.04290617 -15.03064727 0 0 Z M-61.5703125 5.9765625 C-62.18519531 6.55148438 -62.80007812 7.12640625 -63.43359375 7.71875 C-74.65583795 19.30145172 -75.02489051 33.81008177 -74.85546875 48.96875 C-74.56917346 58.23090602 -72.45202846 66.62441755 -66.5703125 73.9765625 C-65.9103125 72.9865625 -65.2503125 71.9965625 -64.5703125 70.9765625 C-62.7578125 68.2890625 -62.7578125 68.2890625 -60.5703125 65.9765625 C-58.1953125 65.5390625 -58.1953125 65.5390625 -55.5703125 65.9765625 C-54.62671875 66.08613281 -53.683125 66.19570313 -52.7109375 66.30859375 C-47.60324775 69.02125982 -46.6191017 73.86021844 -44.6953125 79.1015625 C-44.293125 80.14183594 -43.8909375 81.18210937 -43.4765625 82.25390625 C-42.48736389 84.82111216 -41.51980868 87.39446566 -40.5703125 89.9765625 C-38.61227743 90.03045337 -36.65382341 90.06930467 -34.6953125 90.1015625 C-33.60476562 90.12476563 -32.51421875 90.14796875 -31.390625 90.171875 C-28.4332074 90.27716784 -28.4332074 90.27716784 -26.5703125 87.9765625 C-25.48475449 85.38216524 -24.47336925 82.80231124 -23.5078125 80.1640625 C-23.23904297 79.45185547 -22.97027344 78.73964844 -22.69335938 78.00585938 C-21.33821485 74.35271415 -20.18536198 70.84150306 -19.5703125 66.9765625 C-18.7659375 66.9971875 -17.9615625 67.0178125 -17.1328125 67.0390625 C-14.63676365 67.27289871 -14.63676365 67.27289871 -13.5703125 65.9765625 C-11.2578125 65.6640625 -11.2578125 65.6640625 -8.5703125 65.9765625 C-5.56314975 68.31546686 -4.11193158 70.18522894 -3.5703125 73.9765625 C-2.9103125 73.9765625 -2.2503125 73.9765625 -1.5703125 73.9765625 C-0.76802113 72.48221827 0.02090617 70.98069778 0.8046875 69.4765625 C1.46597656 68.22359375 1.46597656 68.22359375 2.140625 66.9453125 C5.50553311 59.19582715 5.76718535 52.00834403 5.7421875 43.6640625 C5.75830078 42.59994141 5.77441406 41.53582031 5.79101562 40.43945312 C5.79874464 27.77158983 2.48483173 15.28323851 -6.5703125 5.9765625 C-22.63973212 -6.48999121 -45.97502532 -8.82691099 -61.5703125 5.9765625 Z " fill="#060606" transform="translate(123.5703125,211.0234375)"/>
<path d="M0 0 C47.72972973 0 47.72972973 0 57.625 6.3125 C63.233985 12.65950934 64.39501306 20.18861972 64.2734375 28.3828125 C63.45922835 36.17595718 58.89022811 43.00421393 53 48 C40.05810632 55.82071489 28.29245111 55 13 55 C13.33 69.85 13.66 84.7 14 100 C9.38 100 4.76 100 0 100 C0 67 0 34 0 0 Z " fill="#050505" transform="translate(163,204)"/>
<path d="M0 0 C1.32 0 2.64 0 4 0 C4.35626465 0.90081299 4.7125293 1.80162598 5.07958984 2.72973633 C8.80065387 12.1048301 12.66974788 21.40910612 16.625 30.6875 C17.23729508 32.12651569 17.84951701 33.5655625 18.46166992 35.00463867 C20.00896596 38.6405378 21.55862852 42.27542328 23.10894775 45.91003418 C23.96330833 47.91393957 24.81659521 49.91829794 25.66943359 51.92285156 C31.06470759 64.60253408 36.47450972 77.26946112 42.2355957 89.78833008 C42.57292725 90.52591553 42.91025879 91.26350098 43.2578125 92.0234375 C43.5480127 92.65169434 43.83821289 93.27995117 44.13720703 93.92724609 C45.23440076 96.56311897 46.09713457 99.2914037 47 102 C42.05 102 37.1 102 32 102 C29.22313475 96.67319613 26.96566772 91.44040564 25.0625 85.75 C22.90881318 79.45838503 20.54959666 73.31936092 17.8828125 67.22265625 C17 65 17 65 17 63 C4.79 63.33 -7.42 63.66 -20 64 C-21.5675 68.0425 -23.135 72.085 -24.75 76.25 C-25.2356543 77.49813477 -25.72130859 78.74626953 -26.22167969 80.03222656 C-29.02578326 87.29460383 -31.59221261 94.59661633 -34 102 C-37.63 102 -41.26 102 -45 102 C-43.56954642 97.41560715 -41.75660111 93.10131779 -39.71875 88.76171875 C-39.04341758 87.30710362 -38.36821205 85.85242957 -37.69311523 84.39770508 C-37.33627655 83.63164948 -36.97943787 82.86559387 -36.61178589 82.07632446 C-27.82486464 63.19641905 -19.41778018 44.15918434 -11.0944519 25.07139587 C-7.43848023 16.69551853 -3.72264835 8.34641148 0 0 Z " fill="#070707" transform="translate(440,202)"/>
<path d="M0 0 C17.16 0 34.32 0 52 0 C52 2.64 52 5.28 52 8 C32.695 7.505 32.695 7.505 13 7 C13 19.21 13 31.42 13 44 C30.325 43.505 30.325 43.505 48 43 C48 45.97 48 48.94 48 52 C30.675 51.505 30.675 51.505 13 51 C13 64.86 13 78.72 13 93 C25.87 92.67 38.74 92.34 52 92 C52 94.64 52 97.28 52 100 C34.84 100 17.68 100 0 100 C0 67 0 34 0 0 Z " fill="#060606" transform="translate(244,204)"/>
<path d="M0 0 C3.11708404 0.18122582 6.20704735 0.52148605 9.3125 0.84375 C10.199375 0.8953125 11.08625 0.946875 12 1 C12.33 0.67 12.66 0.34 13 0 C18.79000089 -0.56764715 21.38034701 0.61225447 26 4 C28.22602615 4.76939681 28.22602615 4.76939681 30 5 C30 5.66 30 6.32 30 7 C29.34 7.33 28.68 7.66 28 8 C29.08632412 10.25621163 30.23345965 12.37353544 31.5625 14.5 C33.6470173 18.12524748 34.1286943 21.14617174 34.0625 25.29296875 C34.05476563 26.08767578 34.04703125 26.88238281 34.0390625 27.70117188 C34.02617188 28.52166016 34.01328125 29.34214844 34 30.1875 C33.95440585 33.13060265 33.9527493 36.0556906 34 39 C34.33 39.33 34.66 39.66 35 40 C35.12562235 41.76747729 35.17576558 43.54060292 35.1875 45.3125 C35.20167969 46.27800781 35.21585938 47.24351562 35.23046875 48.23828125 C34.99873224 51.01519158 34.42140844 52.63473141 33 55 C33.99 55.33 34.98 55.66 36 56 C30.60539047 58.27141454 25.73842251 58.20413361 20 58 C19.67 59.65 19.34 61.3 19 63 C13.39 63 7.78 63 2 63 C2 60.36 2 57.72 2 55 C3.485 54.505 3.485 54.505 5 54 C4.814375 53.484375 4.62875 52.96875 4.4375 52.4375 C3.82404078 49.01965576 4.21645794 46.37525812 5 43 C7.0625 40.5625 7.0625 40.5625 9 39 C8.67 38.01 8.34 37.02 8 36 C7.01 36.495 7.01 36.495 6 37 C3.6670134 37.04022391 1.33293334 37.04320247 -1 37 C-1.33 35.35 -1.66 33.7 -2 32 C0.97 31.67 3.94 31.34 7 31 C7.33 30.01 7.66 29.02 8 28 C12.6875 28.78125 12.6875 28.78125 17.375 29.5625 C18.674375 29.7790625 18.674375 29.7790625 20 30 C20 29.34 20 28.68 20 28 C17.69 27.67 15.38 27.34 13 27 C12.63628077 20.57429353 12.63628077 20.57429353 14.1875 18.125 C16.4225789 16.73770965 18.40905378 16.35012787 21 16 C21.33 15.01 21.66 14.02 22 13 C14.14524194 10.16990201 14.14524194 10.16990201 6 11 C4.2365625 11.3403125 4.2365625 11.3403125 2.4375 11.6875 C-1.64550381 13.24646509 -3.90565662 15.23672673 -6 19 C-6.92398187 21.67569749 -7.4698737 24.20478859 -8 27 C-9.65 27.33 -11.3 27.66 -13 28 C-13.75140781 20.78648501 -12.29525954 16.7530446 -8 11 C-7.34 10.01 -6.68 9.02 -6 8 C-6.66 8 -7.32 8 -8 8 C-8.33 7.01 -8.66 6.02 -9 5 C-8.43410156 4.72285156 -7.86820312 4.44570312 -7.28515625 4.16015625 C-6.55167969 3.79792969 -5.81820312 3.43570313 -5.0625 3.0625 C-3.96615234 2.52302734 -3.96615234 2.52302734 -2.84765625 1.97265625 C-1.03750973 1.13628173 -1.03750973 1.13628173 0 0 Z " fill="#F0BAAA" transform="translate(79,220)"/>
<path d="M0 0 C22 0 22 0 31 4 C37.39649249 10.66301301 37.50714757 15.96020092 37.34765625 24.76953125 C37.00189181 31.38535045 34.22194386 34.83652835 29.625 39.3125 C19.05540487 46.10723972 14.41449107 44 0 44 C0 29.48 0 14.96 0 0 Z " fill="#FAFAFA" transform="translate(176,209)"/>
<path d="M0 0 C-0.625 1.875 -0.625 1.875 -2 4 C-3.010625 4.33 -4.02125 4.66 -5.0625 5 C-6.031875 5.33 -7.00125 5.66 -8 6 C-8.92393164 7.86196946 -8.92393164 7.86196946 -9 10 C-9.33 11.32 -9.66 12.64 -10 14 C-7.03 14 -4.06 14 -1 14 C-1.99 14.495 -1.99 14.495 -3 15 C-3 15.66 -3 16.32 -3 17 C-2.34 17.33 -1.68 17.66 -1 18 C-5.69023454 17.43393721 -10.34500026 16.81462495 -15 16 C-15.33 16.66 -15.66 17.32 -16 18 C-18.06640625 18.4140625 -18.06640625 18.4140625 -20.5625 18.625 C-21.38878906 18.69976562 -22.21507813 18.77453125 -23.06640625 18.8515625 C-24.02353516 18.92503906 -24.02353516 18.92503906 -25 19 C-24.67 20.32 -24.34 21.64 -24 23 C-21.03 23 -18.06 23 -15 23 C-15 23.66 -15 24.32 -15 25 C-14.34 25.33 -13.68 25.66 -13 26 C-13.639375 26.474375 -14.27875 26.94875 -14.9375 27.4375 C-17.81459145 31.01206816 -18.04160103 34.48212806 -18 39 C-17.67 39.99 -17.34 40.98 -17 42 C-18.32 42 -19.64 42 -21 42 C-21 44.64 -21 47.28 -21 50 C-19.515 49.505 -19.515 49.505 -18 49 C-15.60509014 48.93029948 -13.20832309 48.91551997 -10.8125 48.9375 C-9.54019531 48.94652344 -8.26789063 48.95554687 -6.95703125 48.96484375 C-5.49330078 48.98224609 -5.49330078 48.98224609 -4 49 C-3.67 47.68 -3.34 46.36 -3 45 C-1.35 45 0.3 45 2 45 C-2.37055838 63.37055838 -2.37055838 63.37055838 -7 68 C-9.01964199 68.07244053 -11.04167124 68.08377188 -13.0625 68.0625 C-14.16722656 68.05347656 -15.27195312 68.04445313 -16.41015625 68.03515625 C-17.26480469 68.02355469 -18.11945313 68.01195312 -19 68 C-19.22550537 67.34926514 -19.45101074 66.69853027 -19.68334961 66.02807617 C-20.73235246 63.06713413 -21.83393208 60.12851766 -22.9375 57.1875 C-23.29134766 56.16333984 -23.64519531 55.13917969 -24.00976562 54.08398438 C-26.03426378 48.47616398 -26.03426378 48.47616398 -30.32470703 44.63134766 C-32.5583062 43.8868146 -34.67307243 43.34166339 -37 43 C-37.02703562 40.41659616 -37.04685611 37.83347692 -37.0625 35.25 C-37.07087891 34.52039063 -37.07925781 33.79078125 -37.08789062 33.0390625 C-37.11336469 27.43476747 -37.11336469 27.43476747 -36.43139648 24.81933594 C-36.28903564 24.21895508 -36.1466748 23.61857422 -36 23 C-36.33 22.67 -36.66 22.34 -37 22 C-37.07271741 19.64686445 -37.08370868 17.29166332 -37.0625 14.9375 C-37.05347656 13.64714844 -37.04445313 12.35679687 -37.03515625 11.02734375 C-37.02355469 10.02832031 -37.01195313 9.02929688 -37 8 C-36.67 8 -36.34 8 -36 8 C-35.67 9.98 -35.34 11.96 -35 14 C-33.68 14 -32.36 14 -31 14 C-30.979375 12.845 -30.95875 11.69 -30.9375 10.5 C-30.22766372 4.95933349 -27.26502904 1.44989801 -23 -2 C-15.27334747 -5.86332626 -7.34431763 -3.5191522 0 0 Z " fill="#EFBCAB" transform="translate(102,233)"/>
<path d="M0 0 C5.8244619 2.34986911 10.15150067 6.74831384 12.953125 12.3515625 C13.82978354 20.08613214 13.67868611 26.1934932 8.8046875 32.4765625 C4.70949749 36.62359035 0.58301542 38.94408989 -5.046875 40.3515625 C-11.316875 40.3515625 -17.586875 40.3515625 -24.046875 40.3515625 C-24.046875 27.1515625 -24.046875 13.9515625 -24.046875 0.3515625 C-17.80705332 -2.76834834 -6.66159592 -1.41772426 0 0 Z " fill="#F9F9F9" transform="translate(354.046875,209.6484375)"/>
<path d="M0 0 C4.74644069 -0.10020906 9.49224203 -0.17208723 14.23950195 -0.21972656 C15.84833526 -0.23962238 17.45709842 -0.26674929 19.06567383 -0.30175781 C30.24287689 -0.53860724 42.17164538 -0.67264572 51.625 6.3125 C57.233985 12.65950934 58.39501306 20.18861972 58.2734375 28.3828125 C57.45922835 36.17595718 52.89022811 43.00421393 47 48 C34.34134683 55.64955422 21.27558464 55.26381984 7 55 C7 53.35 7 51.7 7 50 C10.04573772 48.98475409 12.61710399 48.88267812 15.80200195 48.81152344 C25.15567866 48.55694664 32.68337211 47.42454358 39.5 40.4375 C39.995 39.633125 40.49 38.82875 41 38 C41.35320312 37.46246094 41.70640625 36.92492187 42.0703125 36.37109375 C43.45221424 32.84666367 43.36858915 29.35611593 43.375 25.625 C43.41173828 24.51125 43.41173828 24.51125 43.44921875 23.375 C43.47712473 18.11007168 42.42279033 15.20185828 39 11 C36.00125049 8.20116712 32.90780489 7.15457872 29 6 C29 5.34 29 4.68 29 4 C27.95199219 4.02320313 26.90398437 4.04640625 25.82421875 4.0703125 C24.44531963 4.08907303 23.0664128 4.10727293 21.6875 4.125 C20.65206055 4.15013672 20.65206055 4.15013672 19.59570312 4.17578125 C15.82864604 4.21217794 14.21568296 4.14378864 11 2 C8.26127045 1.54227937 8.26127045 1.54227937 5.3125 1.375 C4.31863281 1.30023438 3.32476562 1.22546875 2.30078125 1.1484375 C1.54152344 1.09945312 0.78226563 1.05046875 0 1 C0 0.67 0 0.34 0 0 Z " fill="#0A0A0A" transform="translate(169,204)"/>
<path d="M0 0 C3.19819246 2.64430217 4.54983065 6.02399137 6.13671875 9.75 C6.42102249 10.40452148 6.70532623 11.05904297 6.99824524 11.73339844 C7.59579895 13.11374041 8.18981834 14.49561712 8.78051758 15.87890625 C9.68597311 17.99642917 10.60478752 20.10777539 11.52539062 22.21875 C12.10497144 23.56215308 12.68377429 24.90589213 13.26171875 26.25 C13.53666672 26.88131836 13.81161469 27.51263672 14.09489441 28.16308594 C15.28273684 30.96320994 16 32.92173135 16 36 C5.77 36 -4.46 36 -15 36 C-11.62276874 24.74256248 -11.62276874 24.74256248 -9.3359375 19.58984375 C-8.61277344 17.95305664 -8.61277344 17.95305664 -7.875 16.28320312 C-7.38 15.17912109 -6.885 14.07503906 -6.375 12.9375 C-5.87226563 11.79861328 -5.36953125 10.65972656 -4.8515625 9.48632812 C-1.14773261 1.14773261 -1.14773261 1.14773261 0 0 Z " fill="#F2F2F2" transform="translate(438,223)"/>
<path d="M0 0 C3.11708404 0.18122582 6.20704735 0.52148605 9.3125 0.84375 C10.199375 0.8953125 11.08625 0.946875 12 1 C12.33 0.67 12.66 0.34 13 0 C18.79000089 -0.56764715 21.38034701 0.61225447 26 4 C28.22602615 4.76939681 28.22602615 4.76939681 30 5 C30 5.66 30 6.32 30 7 C29.34 7.33 28.68 7.66 28 8 C29.08632412 10.25621163 30.23345965 12.37353544 31.5625 14.5 C34.17604187 19.04529021 34.10041999 22.77816041 34 28 C31.125 27.5 31.125 27.5 28 26 C26.875 22.1875 26.875 22.1875 26.4609375 20.03125 C25.71338199 16.73693758 24.53815359 15.22088439 22 13 C16.59685804 10.61407649 11.79125885 9.32696967 6 11 C4.2365625 11.3403125 4.2365625 11.3403125 2.4375 11.6875 C-1.64550381 13.24646509 -3.90565662 15.23672673 -6 19 C-6.92398187 21.67569749 -7.4698737 24.20478859 -8 27 C-9.65 27.33 -11.3 27.66 -13 28 C-13.75140781 20.78648501 -12.29525954 16.7530446 -8 11 C-7.34 10.01 -6.68 9.02 -6 8 C-6.66 8 -7.32 8 -8 8 C-8.33 7.01 -8.66 6.02 -9 5 C-8.43410156 4.72285156 -7.86820312 4.44570312 -7.28515625 4.16015625 C-6.55167969 3.79792969 -5.81820312 3.43570313 -5.0625 3.0625 C-3.96615234 2.52302734 -3.96615234 2.52302734 -2.84765625 1.97265625 C-1.03750973 1.13628173 -1.03750973 1.13628173 0 0 Z " fill="#725559" transform="translate(79,220)"/>
<path d="M0 0 C1.65 0 3.3 0 5 0 C5 1.65 5 3.3 5 5 C5.51046875 4.83628906 6.0209375 4.67257812 6.546875 4.50390625 C9.81291828 3.83301519 12.9186747 3.9066544 16.25 3.9375 C18.14492187 3.95103516 18.14492187 3.95103516 20.078125 3.96484375 C21.04234375 3.97644531 22.0065625 3.98804688 23 4 C23.33 2.68 23.66 1.36 24 0 C25.65 0 27.3 0 29 0 C24.62944162 18.37055838 24.62944162 18.37055838 20 23 C17.98035801 23.07244053 15.95832876 23.08377188 13.9375 23.0625 C12.28041016 23.04896484 12.28041016 23.04896484 10.58984375 23.03515625 C9.73519531 23.02355469 8.88054687 23.01195312 8 23 C6.6582322 19.73256344 5.32805641 16.46053092 4 13.1875 C3.6184375 12.25873047 3.236875 11.32996094 2.84375 10.37304688 C2.4828125 9.48037109 2.121875 8.58769531 1.75 7.66796875 C1.41484375 6.84578857 1.0796875 6.0236084 0.734375 5.17651367 C0 3 0 3 0 0 Z " fill="#EBE4D8" transform="translate(75,278)"/>
<path d="M0 0 C3.91023864 1.02593143 6.13646642 1.61969104 8.31689453 5.10498047 C9.48372006 7.74628164 10.48516522 10.39915553 11.4375 13.125 C11.78748047 14.05699219 12.13746094 14.98898437 12.49804688 15.94921875 C15 22.6765839 15 22.6765839 15 24 C4.61827339 23.42323741 -2.56818717 19.09409238 -9.6015625 11.57421875 C-10.06304687 11.05472656 -10.52453125 10.53523438 -11 10 C-6.67697315 -0.91049634 -6.67697315 -0.91049634 0 0 Z " fill="#34343D" transform="translate(68,276)"/>
<path d="M0 0 C2.87410829 2.2862225 4.62210176 4.11082766 6.0625 7.5 C5.96853853 11.2584586 4.68695809 12.3770171 2 15 C-3.85420933 19.40428412 -9.41475185 23.43344275 -17 23 C-18.10002926 20.21992606 -18.01833824 19.05625273 -17.07421875 16.16015625 C-16.61660156 15.13792969 -16.15898438 14.11570312 -15.6875 13.0625 C-15.23761719 12.04285156 -14.78773437 11.02320313 -14.32421875 9.97265625 C-13.88722656 8.99167969 -13.45023437 8.01070313 -13 7 C-12.67257813 6.07703125 -12.34515625 5.1540625 -12.0078125 4.203125 C-11 2 -11 2 -8.1875 0.6875 C-2.72900763 -0.48982188 -2.72900763 -0.48982188 0 0 Z " fill="#33323B" transform="translate(115,276)"/>
<path d="M0 0 C5.2584002 0.67415387 10.02638346 2.24265549 15 4 C14.125 7.875 14.125 7.875 13 9 C10.66702567 9.04092937 8.33294775 9.04241723 6 9 C6.33 9.33 6.66 9.66 7 10 C8.38571432 14.57285725 7.908567 18.38145109 7 23 C4 25 4 25 1.4375 24.75 C-1 24 -1 24 -3 22 C-3.375 18.625 -3.375 18.625 -3 15 C-1 12.5625 -1 12.5625 1 11 C0.67 10.01 0.34 9.02 0 8 C-0.99 8.495 -0.99 8.495 -2 9 C-4.3329866 9.04022391 -6.66706666 9.04320247 -9 9 C-9.33 7.35 -9.66 5.7 -10 4 C-5.545 3.505 -5.545 3.505 -1 3 C-0.67 2.01 -0.34 1.02 0 0 Z " fill="#CE90A5" transform="translate(87,248)"/>
<path d="M0 0 C-0.625 1.875 -0.625 1.875 -2 4 C-3.5159375 4.495 -3.5159375 4.495 -5.0625 5 C-6.031875 5.33 -7.00125 5.66 -8 6 C-8.92393164 7.86196946 -8.92393164 7.86196946 -9 10 C-9.33 11.32 -9.66 12.64 -10 14 C-7.03 14 -4.06 14 -1 14 C-1.66 14.33 -2.32 14.66 -3 15 C-3 15.66 -3 16.32 -3 17 C-2.34 17.33 -1.68 17.66 -1 18 C-6.23880078 17.44854729 -10.97350697 16.57077907 -16 15 C-16.33 12.03 -16.66 9.06 -17 6 C-19.31 5.34 -21.62 4.68 -24 4 C-23.67 2.02 -23.34 0.04 -23 -2 C-14.22053454 -4.66519487 -8.23187567 -3.94444043 0 0 Z " fill="#F1BCAC" transform="translate(102,233)"/>
<path d="M0 0 C13.86 0 27.72 0 42 0 C42 2.64 42 5.28 42 8 C29.46 7.67 16.92 7.34 4 7 C4 6.01 4 5.02 4 4 C3.01 3.34 2.02 2.68 1 2 C0.67 1.34 0.34 0.68 0 0 Z " fill="#171717" transform="translate(254,204)"/>
<path d="M0 0 C0.09152344 0.62390625 0.18304688 1.2478125 0.27734375 1.890625 C0.88084822 4.46196337 0.88084822 4.46196337 4.5625 5.75 C6.2640625 6.36875 6.2640625 6.36875 8 7 C8.19477739 8.62414378 8.38059458 10.24936423 8.5625 11.875 C8.66691406 12.77992188 8.77132812 13.68484375 8.87890625 14.6171875 C9 17 9 17 8 19 C5.93359375 19.4140625 5.93359375 19.4140625 3.4375 19.625 C2.61121094 19.69976562 1.78492187 19.77453125 0.93359375 19.8515625 C-0.02353516 19.92503906 -0.02353516 19.92503906 -1 20 C-1.33 20.99 -1.66 21.98 -2 23 C-2.1546875 22.0409375 -2.1546875 22.0409375 -2.3125 21.0625 C-2.539375 20.381875 -2.76625 19.70125 -3 19 C-3.99 18.67 -4.98 18.34 -6 18 C-6.99 20.475 -6.99 20.475 -8 23 C-8.66 22.67 -9.32 22.34 -10 22 C-9.67 21.67 -9.34 21.34 -9 21 C-9.99 20.67 -10.98 20.34 -12 20 C-11.67 18.35 -11.34 16.7 -11 15 C-9.68 15 -8.36 15 -7 15 C-6.95875 13.824375 -6.9175 12.64875 -6.875 11.4375 C-6.28277064 6.32610508 -3.57530071 3.49876522 0 0 Z " fill="#E6B5A6" transform="translate(78,232)"/>
<path d="M0 0 C0 2.97 0 5.94 0 9 C-11.55 8.67 -23.1 8.34 -35 8 C-34.67 6.35 -34.34 4.7 -34 3 C-34.33 2.34 -34.66 1.68 -35 1 C-30.97986475 0.85623256 -26.95968251 0.71386511 -22.93945312 0.57275391 C-21.57387985 0.5246294 -20.20831964 0.47613278 -18.84277344 0.42724609 C-16.87178019 0.35675071 -14.90073413 0.28773663 -12.9296875 0.21875 C-11.74616699 0.17685547 -10.56264648 0.13496094 -9.34326172 0.09179688 C-6.2266617 0.00622351 -3.11755898 -0.01660484 0 0 Z " fill="#111111" transform="translate(292,247)"/>
<path d="M0 0 C0.33 0 0.66 0 1 0 C1.02322472 9.51023198 1.04096659 19.02045411 1.05181217 28.53070831 C1.05701889 32.94724025 1.06407619 37.36375271 1.07543945 41.78027344 C1.08634715 46.04668874 1.09229348 50.31308537 1.09487724 54.57951355 C1.09671733 56.20289911 1.10031045 57.8262837 1.10573006 59.44966125 C1.11304525 61.73273892 1.11398656 64.01574053 1.11352539 66.29882812 C1.115746 67.59566528 1.11796661 68.89250244 1.12025452 70.2286377 C0.99281271 74.22540411 0.55436576 78.0425736 0 82 C2.97 82 5.94 82 9 82 C9 75.4 9 68.8 9 62 C9.33 62 9.66 62 10 62 C10.33 67.61 10.66 73.22 11 79 C11.33 79 11.66 79 12 79 C12 80.98 12 82.96 12 85 C7.38 85 2.76 85 -2 85 C-2 80.38 -2 75.76 -2 71 C-1.34 71 -0.68 71 0 71 C0 47.57 0 24.14 0 0 Z " fill="#1C1C1C" transform="translate(319,219)"/>
<path d="M0 0 C2.64 0 5.28 0 8 0 C8 2.64 8 5.28 8 8 C-8.83 8 -25.66 8 -43 8 C-43 5.69 -43 3.38 -43 1 C-42.67 2.32 -42.34 3.64 -42 5 C-26.16 5 -10.32 5 6 5 C5.505 3.515 5.505 3.515 5 2 C2.525 1.505 2.525 1.505 0 1 C0 0.67 0 0.34 0 0 Z " fill="#393939" transform="translate(288,296)"/>
<path d="M0 0 C0.33 0 0.66 0 1 0 C0.63495936 5.66442374 -0.0554321 10.00703705 -3 15 C-2.34 15 -1.68 15 -1 15 C-0.61715581 20.23220388 -1.58743614 23.44293494 -4 28 C-7 29 -7 29 -9 29 C-10.63676257 30.9600281 -10.63676257 30.9600281 -12 33 C-11.46071349 28.13032328 -10.44008456 24.12019537 -8.49609375 19.62890625 C-8.00302734 18.47841797 -7.50996094 17.32792969 -7.00195312 16.14257812 C-6.48568359 14.96115234 -5.96941406 13.77972656 -5.4375 12.5625 C-4.91736328 11.35400391 -4.39722656 10.14550781 -3.86132812 8.90039062 C-2.58170626 5.93025915 -1.29441585 2.96370674 0 0 Z " fill="#0E0E0E" transform="translate(436,210)"/>
<path d="M0 0 C21.00917431 -0.39755352 21.00917431 -0.39755352 30 2 C29.67 2.66 29.34 3.32 29 4 C28.01 4 27.02 4 26 4 C26 4.66 26 5.32 26 6 C26.66 6.33 27.32 6.66 28 7 C23.47907032 8.45606519 20.48351204 7.27032841 16 6 C16 5.34 16 4.68 16 4 C12.7 4 9.4 4 6 4 C6 3.01 6 2.02 6 1 C4.02 1 2.04 1 0 1 C0 0.67 0 0.34 0 0 Z " fill="#101010" transform="translate(78,202)"/>
<path d="M0 0 C3.625 0.375 3.625 0.375 7 1 C6.60167969 1.38929688 6.20335938 1.77859375 5.79296875 2.1796875 C1.23327839 6.99454301 -0.52875596 11.58589223 -2 18 C-3.65 18.33 -5.3 18.66 -7 19 C-7.73994125 11.896564 -6.43121917 7.59944968 -2 2 C-1.34 1.34 -0.68 0.68 0 0 Z " fill="#5B4547" transform="translate(73,229)"/>
<path d="M0 0 C3.66246891 2.91119324 5.75496127 6.29623663 6.4375 10.9375 C6.47638349 13.27050933 6.4823635 15.60459801 6.4375 17.9375 C3.5625 17.4375 3.5625 17.4375 0.4375 15.9375 C-0.625 12.25 -0.625 12.25 -0.99609375 10.11328125 C-1.95926732 6.41336622 -4.21203213 3.90651205 -6.5625 0.9375 C-3.88427315 -0.94717815 -3.10496962 -1.28742643 0 0 Z " fill="#5D474A" transform="translate(106.5625,230.0625)"/>
<path d="M0 0 C0.495 0.165 0.99 0.33 1.5 0.5 C6.6979446 1.53958892 11.87822809 1.28044298 17 0 C17 2.64 17 5.28 17 8 C11.39 8 5.78 8 0 8 C0 5.36 0 2.72 0 0 Z " fill="#E3746F" transform="translate(81,275)"/>
<path d="M0 0 C3.01946982 0.18272132 6.01199255 0.52138288 9.01953125 0.84375 C11.67831374 0.98313571 13.49843283 0.82376062 16 0 C15.6875 1.875 15.6875 1.875 15 4 C12 6 12 6 9.75 5.6875 C8.8425 5.460625 7.935 5.23375 7 5 C3.48618881 4.09308537 3.48618881 4.09308537 0 4 C-2.2085766 5.87508162 -2.2085766 5.87508162 -4 8 C-5.32 8 -6.64 8 -8 8 C-8.33 7.01 -8.66 6.02 -9 5 C-8.43410156 4.72285156 -7.86820312 4.44570312 -7.28515625 4.16015625 C-6.55167969 3.79792969 -5.81820312 3.43570313 -5.0625 3.0625 C-3.96615234 2.52302734 -3.96615234 2.52302734 -2.84765625 1.97265625 C-1.03750973 1.13628173 -1.03750973 1.13628173 0 0 Z " fill="#8A7075" transform="translate(79,220)"/>
<path d="M0 0 C3.15616223 0.93515918 4.97807712 1.79483095 7.375 4 C6.385 4.66 5.395 5.32 4.375 6 C3.715 6.66 3.055 7.32 2.375 8 C-0.19140625 8.046875 -0.19140625 8.046875 -3.1875 7.75 C-4.17878906 7.66234375 -5.17007813 7.5746875 -6.19140625 7.484375 C-6.99449219 7.32453125 -7.79757813 7.1646875 -8.625 7 C-8.955 6.34 -9.285 5.68 -9.625 5 C-4.625 0 -4.625 0 0 0 Z " fill="#73565B" transform="translate(82.625,223)"/>
<path d="M0 0 C0.33 0 0.66 0 1 0 C1.495 3.96 1.495 3.96 2 8 C-9.55 7.67 -21.1 7.34 -33 7 C-33 6.01 -33 5.02 -33 4 C-9.00483611 3.79361047 -9.00483611 3.79361047 0 5 C0 3.35 0 1.7 0 0 Z " fill="#2B2B2B" transform="translate(290,248)"/>
<path d="M0 0 C10.72867997 -0.10947633 21.3051534 0.03711992 32 1 C32 1.33 32 1.66 32 2 C30.35 2.33 28.7 2.66 27 3 C27 3.33 27 3.66 27 4 C23.81251971 4.02932572 20.62507472 4.04690739 17.4375 4.0625 C16.09461914 4.07506836 16.09461914 4.07506836 14.72460938 4.08789062 C9.70002057 4.10629571 4.95182709 3.86266398 0 3 C0 2.01 0 1.02 0 0 Z " fill="#262626" transform="translate(324,204)"/>
<path d="M0 0 C7.71787631 0.77178763 13.00766257 2.92823826 18 9 C21.09833556 14.57461146 21.21376321 18.82084186 20 25 C19.67 25 19.34 25 19 25 C18.89042969 24.19175781 18.78085937 23.38351563 18.66796875 22.55078125 C18.50941406 21.48214844 18.35085938 20.41351563 18.1875 19.3125 C18.03667969 18.25675781 17.88585937 17.20101562 17.73046875 16.11328125 C16.79672157 12.13362082 15.58614476 9.1413346 12.203125 6.70703125 C7.85710544 4.71655429 3.64164733 3.16041183 -1 2 C-0.67 1.34 -0.34 0.68 0 0 Z " fill="#1E1E1E" transform="translate(359,205)"/>
<path d="M0 0 C1.670625 0.061875 1.670625 0.061875 3.375 0.125 C3.705 1.445 4.035 2.765 4.375 4.125 C2.065 3.465 -0.245 2.805 -2.625 2.125 C-2.625 2.785 -2.625 3.445 -2.625 4.125 C-0.975 4.455 0.675 4.785 2.375 5.125 C2.705 6.115 3.035 7.105 3.375 8.125 C0.41835481 9.6033226 -2.36729737 9.18532783 -5.625 9.125 C-5.75 5.75 -5.75 5.75 -5.625 2.125 C-3.625 0.125 -3.625 0.125 0 0 Z " fill="#8A6C66" transform="translate(97.625,237.875)"/>
<path d="M0 0 C1.670625 0.061875 1.670625 0.061875 3.375 0.125 C4.17453138 3.41196233 4.47158936 4.83523192 3.375 8.125 C1.065 8.125 -1.245 8.125 -3.625 8.125 C-4.285 6.145 -4.945 4.165 -5.625 2.125 C-3.625 0.125 -3.625 0.125 0 0 Z " fill="#876B68" transform="translate(81.625,237.875)"/>
<path d="M0 0 C3 1 3 1 4.38671875 3.21484375 C4.81597656 4.11332031 5.24523437 5.01179688 5.6875 5.9375 C6.12449219 6.83339844 6.56148438 7.72929687 7.01171875 8.65234375 C8 11 8 11 8 13 C3.38 13 -1.24 13 -6 13 C-6.33 11.68 -6.66 10.36 -7 9 C-3.37 9.33 0.26 9.66 4 10 C3.34 8.72125 2.68 7.4425 2 6.125 C0 2.25 0 2.25 0 0 Z " fill="#2C2C2C" transform="translate(479,291)"/>
<path d="M0 0 C-1.65 0.66 -3.3 1.32 -5 2 C-4.01 2.66 -3.02 3.32 -2 4 C-4.75078884 4.91692961 -6.35948913 5.10886083 -9.1875 5.0625 C-11.0746875 5.0315625 -11.0746875 5.0315625 -13 5 C-12.67 4.01 -12.34 3.02 -12 2 C-11.34 1.67 -10.68 1.34 -10 1 C-13.3 0.67 -16.6 0.34 -20 0 C-20 -0.33 -20 -0.66 -20 -1 C-17.41718164 -1.22224251 -14.83477813 -1.42823488 -12.25 -1.625 C-11.52039063 -1.68945312 -10.79078125 -1.75390625 -10.0390625 -1.8203125 C-6.14088264 -2.10381649 -3.29354678 -2.27081383 0 0 Z " fill="#202020" transform="translate(200,254)"/>
<path d="M0 0 C0.33 0 0.66 0 1 0 C0.51171875 6.0546875 0.51171875 6.0546875 0 8 C-3 10 -3 10 -5.5625 9.75 C-8 9 -8 9 -10 7 C-10 6.01 -10 5.02 -10 4 C-6.7 4 -3.4 4 0 4 C0 2.68 0 1.36 0 0 Z " fill="#D6746F" transform="translate(94,263)"/>
<path d="M0 0 C3.0625 0.1875 3.0625 0.1875 5.0625 2.1875 C5.0625 3.5075 5.0625 4.8275 5.0625 6.1875 C1.7625 6.1875 -1.5375 6.1875 -4.9375 6.1875 C-3.87127483 0.24710265 -3.87127483 0.24710265 0 0 Z " fill="#2F2028" transform="translate(88.9375,260.8125)"/>
<path d="M0 0 C2.97 0 5.94 0 9 0 C9 2.31 9 4.62 9 7 C5.04 7 1.08 7 -3 7 C-3 6.67 -3 6.34 -3 6 C-7.29 5.67 -11.58 5.34 -16 5 C-16 4.67 -16 4.34 -16 4 C-13.64575325 3.97273073 -11.29183038 3.95303281 -8.9375 3.9375 C-7.62652344 3.92589844 -6.31554687 3.91429687 -4.96484375 3.90234375 C-1.1836481 3.99547665 2.27920707 4.38551274 6 5 C6 3.68 6 2.36 6 1 C4.02 1 2.04 1 0 1 C0 0.67 0 0.34 0 0 Z " fill="#1D1D1D" transform="translate(287,205)"/>
<path d="M0 0 C4.28273579 4.12112312 8.0989026 8.53854541 11.875 13.125 C12.78378906 14.19814453 12.78378906 14.19814453 13.7109375 15.29296875 C14.278125 15.98261719 14.8453125 16.67226563 15.4296875 17.3828125 C15.94772949 18.00559082 16.46577148 18.62836914 16.99951172 19.27001953 C17.32967285 19.84091309 17.65983398 20.41180664 18 21 C17.67 21.99 17.34 22.98 17 24 C12 18.25 12 18.25 12 16 C11.34 16 10.68 16 10 16 C9.34 14.35 8.68 12.7 8 11 C7.34 11 6.68 11 6 11 C4.4921875 9.35546875 4.4921875 9.35546875 2.875 7.1875 C2.06675781 6.12595703 2.06675781 6.12595703 1.2421875 5.04296875 C0 3 0 3 0 0 Z " fill="#1C1C1C" transform="translate(354,260)"/>
<path d="M0 0 C2.97 0.33 5.94 0.66 9 1 C8 5 8 5 7 6 C4.66702567 6.04092937 2.33294775 6.04241723 0 6 C-1 3 -1 3 0 0 Z " fill="#5D4144" transform="translate(93,251)"/>
<path d="M0 0 C0.66 1.65 1.32 3.3 2 5 C-0.95664519 6.4783226 -3.74229737 6.06032783 -7 6 C-7.33 4.35 -7.66 2.7 -8 1 C-5.10765685 0.17361624 -3.11257569 0 0 0 Z " fill="#5E4144" transform="translate(85,251)"/>
<path d="M0 0 C-3.34500054 3.34500054 -6.61893439 4.12940419 -11.25 4.1875 C-15 4 -15 4 -16 3 C-17.32594105 2.63837971 -18.65938457 2.30271961 -20 2 C-19.01 2 -18.02 2 -17 2 C-16.67 1.34 -16.34 0.68 -16 0 C-14.00045254 -0.04254356 -11.99958364 -0.04080783 -10 0 C-9.67 0.33 -9.34 0.66 -9 1 C-8.071875 0.649375 -7.14375 0.29875 -6.1875 -0.0625 C-3 -1 -3 -1 0 0 Z " fill="#151515" transform="translate(366,249)"/>
<path d="M0 0 C4.03520597 1.58962659 8.01811282 3.28232318 12 5 C12 5.66 12 6.32 12 7 C10 8.625 10 8.625 8 10 C6.88625 8.8553125 6.88625 8.8553125 5.75 7.6875 C3.5736677 5.5606298 1.47832204 3.7440044 -1 2 C-0.67 1.34 -0.34 0.68 0 0 Z " fill="#876E72" transform="translate(97,220)"/>
<path d="M0 0 C11.24324 10.90253575 11.24324 10.90253575 14 17 C13.34 17.33 12.68 17.66 12 18 C10.20697179 15.73023018 8.41553207 13.45923756 6.625 11.1875 C5.86316406 10.22360352 5.86316406 10.22360352 5.0859375 9.24023438 C4.59609375 8.61826172 4.10625 7.99628906 3.6015625 7.35546875 C3.15119629 6.78465576 2.70083008 6.21384277 2.23681641 5.62573242 C1.09736659 4.12798345 0.04389771 2.56584656 -1 1 C-0.67 0.67 -0.34 0.34 0 0 Z " fill="#181818" transform="translate(340,259)"/>
<path d="M0 0 C2.31 0 4.62 0 7 0 C6.67 0.66 6.34 1.32 6 2 C4.68 2 3.36 2 2 2 C2.33 6.29 2.66 10.58 3 15 C2.01 14.67 1.02 14.34 0 14 C0 9.38 0 4.76 0 0 Z " fill="#0C0C0C" transform="translate(317,204)"/>
<path d="M0 0 C2.27505004 2.16671432 4.23575092 4.39563231 6 7 C6 7.66 6 8.32 6 9 C6.66 9 7.32 9 8 9 C8 9.66 8 10.32 8 11 C9.32 11.66 10.64 12.32 12 13 C12 13.99 12 14.98 12 16 C6.75027653 11.89962427 2.79037089 7.47035213 -1 2 C-0.67 1.34 -0.34 0.68 0 0 Z " fill="#141414" transform="translate(42,280)"/>
<path d="M0 0 C0 2.64 0 5.28 0 8 C-2.4375 7.625 -2.4375 7.625 -5 7 C-6 5 -6 5 -5.6875 2.9375 C-4.56889531 -0.21493141 -3.22380587 0 0 0 Z " fill="#B95F58" transform="translate(98,275)"/>
<path d="M0 0 C3 1 3 1 4.75 3.3125 C6 6 6 6 5.6875 8.3125 C5.460625 8.869375 5.23375 9.42625 5 10 C5 9.01 5 8.02 5 7 C3.68 7.33 2.36 7.66 1 8 C0.67 7.01 0.34 6.02 0 5 C-2.97 4.505 -2.97 4.505 -6 4 C-6 3.67 -6 3.34 -6 3 C-5.195625 2.87625 -4.39125 2.7525 -3.5625 2.625 C-2.716875 2.41875 -1.87125 2.2125 -1 2 C-0.67 1.34 -0.34 0.68 0 0 Z " fill="#DAACA0" transform="translate(101,234)"/>
<path d="M0 0 C0.66 0 1.32 0 2 0 C2.9041966 3.39073724 3.14892391 6.69532103 3.25 10.1875 C3.27578125 11.04730469 3.3015625 11.90710938 3.328125 12.79296875 C3.21984375 13.52128906 3.1115625 14.24960938 3 15 C2.01 15.66 1.02 16.32 0 17 C0 11.39 0 5.78 0 0 Z " fill="#191919" transform="translate(224,220)"/>
<path d="M0 0 C2.62561109 -0.08074203 5.24875676 -0.1403623 7.875 -0.1875 C8.99455078 -0.22520508 8.99455078 -0.22520508 10.13671875 -0.26367188 C12.3046875 -0.29296875 12.3046875 -0.29296875 16 0 C16.66 0.99 17.32 1.98 18 3 C12.39 3 6.78 3 1 3 C0.67 2.01 0.34 1.02 0 0 Z " fill="#2D2D2D" transform="translate(372,301)"/>
<path d="M0 0 C0.99 0.33 1.98 0.66 3 1 C3 3.31 3 5.62 3 8 C2.01 8.33 1.02 8.66 0 9 C-2 7 -2 7 -2.125 3.875 C-2.08375 2.92625 -2.0425 1.9775 -2 1 C-1.34 0.67 -0.68 0.34 0 0 Z " fill="#E0B1A1" transform="translate(110,247)"/>
<path d="M0 0 C0.0825 0.61875 0.165 1.2375 0.25 1.875 C0.81258459 4.18437567 0.81258459 4.18437567 3.0625 5.25 C3.701875 5.4975 4.34125 5.745 5 6 C1.35206816 7.27253436 -2.1936543 8.32829194 -6 9 C-4.68775452 5.06326356 -3.08089673 2.77280706 0 0 Z " fill="#E0B0A5" transform="translate(78,232)"/>
<path d="M0 0 C1.91635217 -0.05423638 3.83314925 -0.09289963 5.75 -0.125 C7.35101563 -0.15980469 7.35101563 -0.15980469 8.984375 -0.1953125 C12 0 12 0 16 2 C8.08 2.495 8.08 2.495 0 3 C0 2.01 0 1.02 0 0 Z " fill="#0B0B0B" transform="translate(86,202)"/>
<path d="M0 0 C0.33 0 0.66 0 1 0 C1.19294408 4.82360189 0.75747614 8.49646738 -1 13 C-1.66 12.67 -2.32 12.34 -3 12 C-2.67 11.67 -2.34 11.34 -2 11 C-2.99 10.67 -3.98 10.34 -5 10 C-4.67 8.35 -4.34 6.7 -4 5 C-2.68 5 -1.36 5 0 5 C0 3.35 0 1.7 0 0 Z " fill="#DDAD9C" transform="translate(71,242)"/>
<path d="M0 0 C2.64 0 5.28 0 8 0 C8 0.99 8 1.98 8 3 C15.92 2.505 15.92 2.505 24 2 C24 2.33 24 2.66 24 3 C22.02 3.33 20.04 3.66 18 4 C18 4.66 18 5.32 18 6 C17.34 6 16.68 6 16 6 C16 5.34 16 4.68 16 4 C12.7 4 9.4 4 6 4 C6 3.01 6 2.02 6 1 C4.02 1 2.04 1 0 1 C0 0.67 0 0.34 0 0 Z " fill="#212121" transform="translate(78,202)"/>
<path d="M0 0 C0 0.66 0 1.32 0 2 C0.66 2.33 1.32 2.66 2 3 C-0.3125 5.0625 -0.3125 5.0625 -3 7 C-3.99 6.67 -4.98 6.34 -6 6 C-5.67 5.01 -5.34 4.02 -5 3 C-5.99 2.34 -6.98 1.68 -8 1 C-2.25 0 -2.25 0 0 0 Z " fill="#E6B7A7" transform="translate(87,256)"/>
<path d="M0 0 C2.64752004 2.57784846 4.94432065 4.91648098 7 8 C6.9765625 10.48046875 6.9765625 10.48046875 6.625 13.1875 C6.51414062 14.08855469 6.40328125 14.98960937 6.2890625 15.91796875 C6.14597656 16.94857422 6.14597656 16.94857422 6 18 C5.67 18 5.34 18 5 18 C4.96132813 17.12988281 4.96132813 17.12988281 4.921875 16.2421875 C4.51802796 10.68011239 3.37823336 7.57696132 0 3 C0 2.01 0 1.02 0 0 Z " fill="#1F1F1F" transform="translate(362,213)"/>
<path d="M0 0 C2.475 0.99 2.475 0.99 5 2 C5 3.65 5 5.3 5 7 C3.35 7.33 1.7 7.66 0 8 C0 5.36 0 2.72 0 0 Z " fill="#B65A55" transform="translate(81,275)"/>
<path d="M0 0 C0.99 0.33 1.98 0.66 3 1 C4.23828125 3.6171875 4.23828125 3.6171875 5.3125 6.875 C5.67988281 7.94492188 6.04726562 9.01484375 6.42578125 10.1171875 C7 13 7 13 5 16 C4.35228492 14.08396843 3.70690052 12.16714887 3.0625 10.25 C2.70285156 9.18265625 2.34320313 8.1153125 1.97265625 7.015625 C1.22017881 4.68264275 0.55022756 2.38625005 0 0 Z " fill="#151515" transform="translate(135,226)"/>
<path d="M0 0 C3.68754757 0.49831724 5.60490662 1.10067643 8 4 C7.01 5.485 7.01 5.485 6 7 C4.02 6.34 2.04 5.68 0 5 C0 3.33333333 0 1.66666667 0 0 Z " fill="#D4A89C" transform="translate(87,256)"/>
<path d="M0 0 C0.33 0 0.66 0 1 0 C0.63495936 5.66442374 -0.0554321 10.00703705 -3 15 C-3.66 14.67 -4.32 14.34 -5 14 C-3.45730076 9.27934033 -1.92205381 4.58335908 0 0 Z " fill="#202020" transform="translate(436,210)"/>
<path d="M0 0 C0.66 0.99 1.32 1.98 2 3 C1.07260067 7.173297 -0.3323293 11.06906192 -2 15 C-2.66 14.67 -3.32 14.34 -4 14 C-3.69255859 13.11248047 -3.69255859 13.11248047 -3.37890625 12.20703125 C-2.0002429 8.16339184 -0.68249153 4.23144751 0 0 Z " fill="#1E1E1E" transform="translate(140,266)"/>
<path d="M0 0 C0.99386719 0.38027344 1.98773438 0.76054687 3.01171875 1.15234375 C3.77097656 1.45269531 4.53023437 1.75304687 5.3125 2.0625 C5.3125 3.0525 5.3125 4.0425 5.3125 5.0625 C3.72829871 4.43970331 2.14517469 3.81416599 0.5625 3.1875 C-0.31921875 2.83945313 -1.2009375 2.49140625 -2.109375 2.1328125 C-4.3615248 1.1978291 -6.52399459 0.18469206 -8.6875 -0.9375 C-4.90884307 -2.19705231 -3.65338214 -1.41837189 0 0 Z " fill="#141414" transform="translate(213.6875,206.9375)"/>
<path d="M0 0 C1.32 1.65 2.64 3.3 4 5 C0.37 5 -3.26 5 -7 5 C-6.34 4.67 -5.68 4.34 -5 4 C-5 3.34 -5 2.68 -5 2 C-3.35 2 -1.7 2 0 2 C0 1.34 0 0.68 0 0 Z " fill="#FBF8EE" transform="translate(91,295)"/>
<path d="M0 0 C2.31 0 4.62 0 7 0 C7.33 1.32 7.66 2.64 8 4 C6.906875 3.814375 5.81375 3.62875 4.6875 3.4375 C1.06375867 2.7421932 1.06375867 2.7421932 -2 4 C-1.34 2.68 -0.68 1.36 0 0 Z " fill="#614440" transform="translate(78,238)"/>
<path d="M0 0 C2.31 0 4.62 0 7 0 C7.33 1.32 7.66 2.64 8 4 C6.906875 3.814375 5.81375 3.62875 4.6875 3.4375 C1.06375867 2.7421932 1.06375867 2.7421932 -2 4 C-1.34 2.68 -0.68 1.36 0 0 Z " fill="#644540" transform="translate(94,238)"/>
<path d="M0 0 C2.09782787 2.09782787 2.6509396 3.3799207 3.625 6.125 C3.88539063 6.84945312 4.14578125 7.57390625 4.4140625 8.3203125 C4.70410156 9.15175781 4.70410156 9.15175781 5 10 C4.34 10.66 3.68 11.32 3 12 C2.30062798 10.5682384 1.61587282 9.12932968 0.9375 7.6875 C0.55464844 6.88699219 0.17179687 6.08648437 -0.22265625 5.26171875 C-1 3 -1 3 0 0 Z " fill="#1B1B1B" transform="translate(444,205)"/>
<path d="M0 0 C4.05606165 0.46800711 7.46588679 0.87953208 11 3 C11 3.66 11 4.32 11 5 C5.06 3.515 5.06 3.515 -1 2 C-0.67 1.34 -0.34 0.68 0 0 Z " fill="#0F0F0F" transform="translate(359,205)"/>
<path d="M0 0 C2.09782787 2.09782787 2.6509396 3.3799207 3.625 6.125 C3.88539063 6.84945313 4.14578125 7.57390625 4.4140625 8.3203125 C4.70410156 9.15175781 4.70410156 9.15175781 5 10 C4.34 10.66 3.68 11.32 3 12 C2.30062798 10.5682384 1.61587282 9.12932968 0.9375 7.6875 C0.55464844 6.88699219 0.17179687 6.08648437 -0.22265625 5.26171875 C-1 3 -1 3 0 0 Z " fill="#191919" transform="translate(468,262)"/>
<path d="M0 0 C-0.6875 1.9375 -0.6875 1.9375 -2 4 C-4.625 4.75 -4.625 4.75 -7 5 C-7.33 4.01 -7.66 3.02 -8 2 C-5.09399739 0.74335022 -3.20395416 0 0 0 Z " fill="#846A71" transform="translate(78,223)"/>
<path d="M0 0 C2.66666667 2.66666667 5.33333333 5.33333333 8 8 C7.67 8.99 7.34 9.98 7 11 C2 5.25 2 5.25 2 3 C1.34 3 0.68 3 0 3 C0 2.01 0 1.02 0 0 Z " fill="#131313" transform="translate(364,273)"/>
<path d="M0 0 C0.99 0.66 1.98 1.32 3 2 C2.67 2.66 2.34 3.32 2 4 C2.99 4.33 3.98 4.66 5 5 C2.69 5.33 0.38 5.66 -2 6 C-1.125 1.125 -1.125 1.125 0 0 Z " fill="#372A2D" transform="translate(86,261)"/>
<path d="M0 0 C1.32 0 2.64 0 4 0 C4 0.66 4 1.32 4 2 C5.32 2 6.64 2 8 2 C8 2.66 8 3.32 8 4 C6.68 4 5.36 4 4 4 C3.67 4.99 3.34 5.98 3 7 C2.896875 6.38125 2.79375 5.7625 2.6875 5.125 C2.12474627 2.63473516 2.12474627 2.63473516 -1 1 C-0.67 0.67 -0.34 0.34 0 0 Z " fill="#E1B2A1" transform="translate(73,248)"/>
<path d="M0 0 C3.62613199 0.56959153 5.25517741 1.92374534 7.75 4.5625 C8.36359375 5.20316406 8.9771875 5.84382812 9.609375 6.50390625 C10.06828125 6.99761719 10.5271875 7.49132812 11 8 C10.34 8.66 9.68 9.32 9 10 C8.60167969 9.52949219 8.20335937 9.05898437 7.79296875 8.57421875 C7.26316406 7.95160156 6.73335937 7.32898438 6.1875 6.6875 C5.66542969 6.07261719 5.14335937 5.45773438 4.60546875 4.82421875 C3.12827531 3.14575321 1.59960869 1.56117966 0 0 Z " fill="#151515" transform="translate(124,214)"/>
<path d="M0 0 C1.98 0 3.96 0 6 0 C2.80198175 2.82901615 0.26284248 3.73357234 -4 4 C-6.375 3.0625 -6.375 3.0625 -8 2 C-5.36 2 -2.72 2 0 2 C0 1.34 0 0.68 0 0 Z " fill="#20201F" transform="translate(110,300)"/>
<path d="M0 0 C2.64 0 5.28 0 8 0 C8 2.64 8 5.28 8 8 C7.34 7.67 6.68 7.34 6 7 C5.375 4.4375 5.375 4.4375 5 2 C3.35 1.67 1.7 1.34 0 1 C0 0.67 0 0.34 0 0 Z " fill="#1E1E1E" transform="translate(288,296)"/>
<path d="M0 0 C2.31 0.33 4.62 0.66 7 1 C7 1.66 7 2.32 7 3 C3.94736336 3.98120464 2.05263664 3.98120464 -1 3 C-0.67 2.01 -0.34 1.02 0 0 Z " fill="#F1BEAB" transform="translate(78,247)"/>
<path d="M0 0 C0.33 0 0.66 0 1 0 C0.67 5.28 0.34 10.56 0 16 C-0.33 16 -0.66 16 -1 16 C-1.33 12.04 -1.66 8.08 -2 4 C-1.34 4 -0.68 4 0 4 C0 2.68 0 1.36 0 0 Z " fill="#161616" transform="translate(319,286)"/>
<path d="M0 0 C1.65 0 3.3 0 5 0 C5 1.32 5 2.64 5 4 C4.01 4 3.02 4 2 4 C1.67 4.66 1.34 5.32 1 6 C0.67 4.02 0.34 2.04 0 0 Z " fill="#E3D6CE" transform="translate(75,278)"/>
<path d="M0 0 C2.63548461 2.63548461 2.64649512 4.32354922 3 8 C2.5625 11.375 2.5625 11.375 2 14 C1.67 14 1.34 14 1 14 C0.67 9.38 0.34 4.76 0 0 Z " fill="#121212" transform="translate(377,216)"/>
<path d="M0 0 C3.45925163 1.2491742 6.14693203 2.67527795 9 5 C8.01 5.495 8.01 5.495 7 6 C4.8359375 5.22265625 4.8359375 5.22265625 2.375 4.0625 C1.55773437 3.68222656 0.74046875 3.30195313 -0.1015625 2.91015625 C-0.72804688 2.60980469 -1.35453125 2.30945313 -2 2 C-1.34 1.34 -0.68 0.68 0 0 Z " fill="#1A1A1A" transform="translate(113,206)"/>
<path d="M0 0 C1.65 0 3.3 0 5 0 C5 0.66 5 1.32 5 2 C4.01 2 3.02 2 2 2 C2.33 2.99 2.66 3.98 3 5 C2.67 5.66 2.34 6.32 2 7 C1.34 7 0.68 7 0 7 C0 4.69 0 2.38 0 0 Z " fill="#0A0A0A" transform="translate(163,204)"/>
<path d="M0 0 C1.65 0 3.3 0 5 0 C4.67 1.65 4.34 3.3 4 5 C2.68 4.67 1.36 4.34 0 4 C0 2.68 0 1.36 0 0 Z " fill="#E2D7CF" transform="translate(99,278)"/>
<path d="M0 0 C1.32 0 2.64 0 4 0 C3.67 0.99 3.34 1.98 3 3 C2.34 3 1.68 3 1 3 C0.34 4.32 -0.32 5.64 -1 7 C-2 4 -2 4 -1.0625 1.8125 C-0.5365625 0.9153125 -0.5365625 0.9153125 0 0 Z " fill="#1B1B1B" transform="translate(440,202)"/>
<path d="M0 0 C0 0.33 0 0.66 0 1 C-3.3 1.33 -6.6 1.66 -10 2 C-10.33 1.34 -10.66 0.68 -11 0 C-7.01803543 -1.05404945 -4.01804691 -0.84098656 0 0 Z " fill="#151515" transform="translate(81,204)"/>
<path d="M0 0 C0.66 0 1.32 0 2 0 C0.25 5.75 0.25 5.75 -2 8 C-3 5 -3 5 -1.6875 2.3125 C-1.130625 1.549375 -0.57375 0.78625 0 0 Z " fill="#1C1C1C" transform="translate(418,253)"/>
<path d="M0 0 C1.32 0.66 2.64 1.32 4 2 C2.6875 3.5 2.6875 3.5 1 5 C0.01 5 -0.98 5 -2 5 C-1.34 3.35 -0.68 1.7 0 0 Z " fill="#D8AA9D" transform="translate(74,236)"/>
<path d="M0 0 C2.50298434 2.93828597 3.46930939 5.17902761 4 9 C3.34 9 2.68 9 2 9 C0.14223235 5.86501708 -0.20140476 3.62528568 0 0 Z " fill="#101010" transform="translate(442,226)"/>
</svg>
