<?xml version="1.0" encoding="UTF-8"?>
<svg version="1.1" xmlns="http://www.w3.org/2000/svg" width="435" height="545">
<path d="M0 0 C143.55 0 287.1 0 435 0 C435 179.85 435 359.7 435 545 C291.45 545 147.9 545 0 545 C0 365.15 0 185.3 0 0 Z " fill="#FEFEFE" transform="translate(0,0)"/>
<path d="M0 0 C2.8125 2.5 2.8125 2.5 5 5 C5.825 5.86625 6.65 6.7325 7.5 7.625 C17.00729147 19.17816432 17.20323148 33.81535306 16 48 C15.13112246 52.70003122 13.29061908 56.81977207 11 61 C10.56558594 61.825 10.13117188 62.65 9.68359375 63.5 C3.13270616 74.54879047 -6.93678451 79.66521687 -19 83 C-32.58525682 86.16045905 -48.51230715 84.08143423 -61 78 C-70.73140341 71.79833973 -77.41778182 62.98546908 -81 52 C-83.57531727 37.46907074 -83.05141795 21.87846171 -74.71875 9.27734375 C-66.37825776 -1.77380846 -56.44716879 -7.22700739 -42.82421875 -9.52734375 C-27.50147833 -11.4211656 -12.6378832 -9.44773793 0 0 Z " fill="#ECB7A6" transform="translate(93,219)"/>
<path d="M0 0 C44.68632708 0 44.68632708 0 53 7 C57.33640777 12.20368932 57.74273084 17.00844107 57.50390625 23.7109375 C56.53388755 30.0423774 53.68145192 34.58924704 48.94921875 38.84375 C43.73803955 42.6202351 38.22026584 44.5196027 32 46 C39.92626228 56.63787833 48.00575068 67.120201 56.44555664 77.35546875 C59.81220057 81.45789697 62.95933417 85.6497683 66 90 C60.59719463 91.13669412 55.30306832 91.92656073 50 90 C44.73931476 85.84332874 41.18609055 79.88604837 37.55029297 74.33398438 C35.41485217 71.11905304 33.07378322 68.09306563 30.6875 65.0625 C29.90375 64.04800781 29.12 63.03351563 28.3125 61.98828125 C27.549375 61.00214844 26.78625 60.01601563 26 59 C25.39865234 58.20795166 25.39865234 58.20795166 24.78515625 57.39990234 C23.5985061 55.84029146 22.39326209 54.29488268 21.1875 52.75 C20.50042969 51.85796875 19.81335938 50.9659375 19.10546875 50.046875 C16.87055896 47.50359406 16.87055896 47.50359406 12 47 C12.33 61.19 12.66 75.38 13 90 C8.71 90 4.42 90 0 90 C0 60.3 0 30.6 0 0 Z " fill="#030303" transform="translate(264,211)"/>
<path d="M0 0 C2.8125 2.5 2.8125 2.5 5 5 C5.825 5.86625 6.65 6.7325 7.5 7.625 C17.00729147 19.17816432 17.20323148 33.81535306 16 48 C15.13112246 52.70003122 13.29061908 56.81977207 11 61 C10.56558594 61.825 10.13117188 62.65 9.68359375 63.5 C3.13270616 74.54879047 -6.93678451 79.66521687 -19 83 C-32.58525682 86.16045905 -48.51230715 84.08143423 -61 78 C-70.73140341 71.79833973 -77.41778182 62.98546908 -81 52 C-83.57531727 37.46907074 -83.05141795 21.87846171 -74.71875 9.27734375 C-66.37825776 -1.77380846 -56.44716879 -7.22700739 -42.82421875 -9.52734375 C-27.50147833 -11.4211656 -12.6378832 -9.44773793 0 0 Z M-60 7 C-67.7928381 17.43010901 -70.11344259 30.15258548 -69 43 C-67.84198592 50.69191832 -66.45721158 57.54472805 -62 64 C-61.34 64 -60.68 64 -60 64 C-59.34 62.35 -58.68 60.7 -58 59 C-49.48592989 58.83626788 -49.48592989 58.83626788 -47 60 C-45.7549909 62.27556688 -44.79382445 64.34841653 -43.875 66.75 C-43.62363281 67.37132812 -43.37226562 67.99265625 -43.11328125 68.6328125 C-42.39465176 70.41621762 -41.69689304 72.20798933 -41 74 C-40.34 75.65 -39.68 77.3 -39 79 C-35.37 79 -31.74 79 -28 79 C-25.4370629 72.72522296 -23.0589455 66.45760179 -21 60 C-20.236875 59.855625 -19.47375 59.71125 -18.6875 59.5625 C-15.91827092 59.0367406 -15.91827092 59.0367406 -13 58 C-9.63628863 60.27050518 -7.36032719 62.74082728 -5 66 C3.42032216 53.11990246 4.58178704 38.69982875 1.875 23.8125 C-0.51531401 13.8065344 -5.3115093 5.72650523 -14 0 C-29.03161492 -8.38684475 -48.46916421 -5.68648748 -60 7 Z " fill="#060606" transform="translate(93,219)"/>
<path d="M0 0 C45.70909091 0 45.70909091 0 53.6875 7.4375 C58.62728283 14.02897493 58.78992514 21.03331595 58 29 C57.06977722 32.00644166 55.81814516 34.44112904 54 37 C53.43410156 37.81984375 52.86820313 38.6396875 52.28515625 39.484375 C49.59918083 42.44124367 46.73637956 44.05716547 43.1875 45.75 C42.59646484 46.05292969 42.00542969 46.35585938 41.39648438 46.66796875 C31.96025018 51.29861803 22.48730152 50 12 50 C12.33 63.2 12.66 76.4 13 90 C8.71 90 4.42 90 0 90 C0 60.3 0 30.6 0 0 Z " fill="#040404" transform="translate(126,211)"/>
<path d="M0 0 C0.99 0 1.98 0 3 0 C4.66918038 3.87392152 6.33515649 7.74921276 8 11.625 C8.39298782 12.53952942 8.39298782 12.53952942 8.79391479 13.47253418 C12.22363567 21.45861395 15.61976117 29.45790699 18.97265625 37.4765625 C20.33567574 40.7344846 21.69890607 43.99231829 23.0625 47.25 C23.57006836 48.46293732 23.57006836 48.46293732 24.08789062 49.70037842 C28.8137393 60.97876764 33.68528521 72.16240625 38.90258789 83.22363281 C39.52315063 84.54379395 39.52315063 84.54379395 40.15625 85.890625 C40.51525391 86.64375977 40.87425781 87.39689453 41.24414062 88.17285156 C42 90 42 90 42 92 C37.05 92 32.1 92 27 92 C26.64808594 90.97003906 26.29617188 89.94007813 25.93359375 88.87890625 C22.31933748 78.41391267 18.28912659 68.20812128 14 58 C3.44 58 -7.12 58 -18 58 C-21.53053354 67.3185346 -21.53053354 67.3185346 -25.06005859 76.63745117 C-25.50172363 77.80252197 -25.94338867 78.96759277 -26.3984375 80.16796875 C-26.84880371 81.35672607 -27.29916992 82.5454834 -27.76318359 83.77026367 C-28.81775526 86.52409876 -29.8955307 89.26587497 -31 92 C-34.3 92 -37.6 92 -41 92 C-39.09921441 86.02280436 -36.94356891 80.37935465 -34.26171875 74.71484375 C-33.90417007 73.94820404 -33.5466214 73.18156433 -33.17823792 72.39169312 C-32.41400476 70.7532812 -31.64779817 69.11578854 -30.87976074 67.47915649 C-28.84430891 63.13998875 -26.82495414 58.79337908 -24.80859375 54.4453125 C-24.40170319 53.56790909 -23.99481262 52.69050568 -23.57559204 51.78651428 C-19.08882282 42.07860489 -14.81262765 32.28111377 -10.5925293 22.45483398 C-7.30444966 14.83559139 -3.79976636 7.37796458 0 0 Z " fill="#060606" transform="translate(375,209)"/>
<path d="M0 0 C8.84124981 5.04605094 14.49056679 11.90204786 17.39453125 21.61328125 C20.89303328 36.15544174 20.72909145 51.47795105 13.1796875 64.82421875 C12.3134375 66.09265625 12.3134375 66.09265625 11.4296875 67.38671875 C10.594375 66.30390625 10.594375 66.30390625 9.7421875 65.19921875 C7.45059416 62.41214576 5.01508893 59.90030347 2.4296875 57.38671875 C2.7596875 56.39671875 3.0896875 55.40671875 3.4296875 54.38671875 C3.68734491 49.41610186 3.68734491 49.41610186 2.91015625 44.55859375 C2.23921716 41.52573088 2.49297294 38.67286849 2.6171875 35.57421875 C2.68110502 29.42535359 2.03146764 26.29823712 -1.5703125 21.38671875 C-2.0653125 19.90171875 -2.0653125 19.90171875 -2.5703125 18.38671875 C-2.2403125 17.72671875 -1.9103125 17.06671875 -1.5703125 16.38671875 C-4.86843185 13.72427045 -7.80279734 11.43752478 -12.15234375 11.3125 C-13.87881802 11.52733863 -15.60107295 11.77962243 -17.31640625 12.0703125 C-19.5703125 12.38671875 -19.5703125 12.38671875 -22.3203125 11.69921875 C-25.87884667 11.20497789 -27.75952357 13.37028322 -30.5703125 15.38671875 C-31.5603125 15.38671875 -32.5503125 15.38671875 -33.5703125 15.38671875 C-33.19132812 15.97066406 -32.81234375 16.55460937 -32.421875 17.15625 C-32.14085938 17.89230469 -31.85984375 18.62835938 -31.5703125 19.38671875 C-32.46875 21.1484375 -32.46875 21.1484375 -33.9453125 23.07421875 C-37.65965349 29.04728062 -36.9203024 35.11515643 -36.6484375 41.88671875 C-36.60976563 43.61921875 -36.60976563 43.61921875 -36.5703125 45.38671875 C-37.0653125 45.88171875 -37.0653125 45.88171875 -37.5703125 46.38671875 C-37.80408173 52.47140432 -37.80408173 52.47140432 -36.5703125 58.38671875 C-37.3540625 58.61359375 -38.1378125 58.84046875 -38.9453125 59.07421875 C-41.7890625 60.16796875 -41.7890625 60.16796875 -42.8828125 63.01171875 C-43.223125 64.18734375 -43.223125 64.18734375 -43.5703125 65.38671875 C-46.5703125 64.38671875 -46.5703125 64.38671875 -47.66796875 62.70703125 C-53.66613094 49.05939097 -54.80570647 32.81897356 -49.5703125 18.6875 C-45.01997345 8.91325198 -38.90745027 2.31309162 -28.8671875 -1.69140625 C-19.84824695 -4.2132901 -8.60242215 -3.72597312 0 0 Z " fill="#FAF9F9" transform="translate(76.5703125,217.61328125)"/>
<path d="M0 0 C15.18 0 30.36 0 46 0 C46 2.64 46 5.28 46 8 C34.63335715 8.18979552 23.35067593 7.58584134 12 7 C12 17.89 12 28.78 12 40 C14.701875 39.835 17.40375 39.67 20.1875 39.5 C27.80430426 39.05628244 35.36904854 38.87865978 43 39 C43 41.64 43 44.28 43 47 C32.77 46.67 22.54 46.34 12 46 C12 58.54 12 71.08 12 84 C29.52276328 83.35043909 29.52276328 83.35043909 47 82 C47 84.64 47 87.28 47 90 C31.49 90 15.98 90 0 90 C0 60.3 0 30.6 0 0 Z " fill="#080808" transform="translate(199,211)"/>
<path d="M0 0 C19 0 19 0 27 3 C32.95056084 9.2037762 33.40799352 13.0247609 33.34765625 21.4375 C32.73263616 27.73972836 29.96356149 31.13461658 25.5 35.375 C16.73700472 41.07094693 12.19789296 39 0 39 C0 26.13 0 13.26 0 0 Z " fill="#F9F9F9" transform="translate(138,216)"/>
<path d="M0 0 C4.27133685 2.22047836 7.03946213 5.87579927 9.1640625 10.125 C9.72081215 16.07793853 9.70547368 21.09848091 6.1640625 26.125 C0.71891975 32.28103638 -5.73016793 34.76786068 -13.8515625 35.3359375 C-21.22114158 35.43239796 -21.22114158 35.43239796 -23.8359375 34.125 C-23.8359375 22.575 -23.8359375 11.025 -23.8359375 -0.875 C-16.39138161 -3.35651863 -7.36660129 -2.49552617 0 0 Z " fill="#F8F8F8" transform="translate(299.8359375,217.875)"/>
<path d="M0 0 C0.66 0 1.32 0 2 0 C3.85615587 4.09128955 5.70743902 8.18473722 7.55419922 12.28027344 C8.1833904 13.6737841 8.8139191 15.06669164 9.44580078 16.45898438 C10.35279374 18.4580709 11.25498538 20.45926313 12.15625 22.4609375 C12.44060913 23.08495453 12.72496826 23.70897156 13.01794434 24.35189819 C15 28.77225659 15 28.77225659 15 31 C6.09 31 -2.82 31 -12 31 C-11.16327592 26.81637959 -10.15497943 23.694952 -8.49609375 19.82421875 C-8.00302734 18.66728516 -7.50996094 17.51035156 -7.00195312 16.31835938 C-6.48568359 15.12017578 -5.96941406 13.92199219 -5.4375 12.6875 C-4.9116721 11.45786919 -4.38627697 10.22805322 -3.86132812 8.99804688 C-2.57846336 5.99684948 -1.29121552 2.99761185 0 0 Z " fill="#F8F8F8" transform="translate(372,229)"/>
<path d="M0 0 C2.22486868 0.47399397 2.22486868 0.47399397 5.05078125 -0.4375 C9.81031812 -0.83412807 13.13892647 1.80021993 17.05078125 4.3125 C16.84710938 5.08335937 16.6434375 5.85421875 16.43359375 6.6484375 C15.71358316 9.47966187 15.71358316 9.47966187 17.92578125 11.9375 C18.62703125 12.72125 19.32828125 13.505 20.05078125 14.3125 C21.33396017 18.16203676 21.11721762 21.25988135 21.05078125 25.3125 C18.73828125 24.875 18.73828125 24.875 16.05078125 23.3125 C15.19140625 21.31640625 15.19140625 21.31640625 14.48828125 18.9375 C13.01827286 13.76393231 13.01827286 13.76393231 9.05078125 10.3125 C2.84957342 8.99141598 -3.06705595 8.67152895 -8.94921875 11.3125 C-11.93951223 14.14115599 -12.8672658 15.99015174 -13.88671875 20 C-14.94921875 23.3125 -14.94921875 23.3125 -17.57421875 24.75 C-18.35796875 24.935625 -19.14171875 25.12125 -19.94921875 25.3125 C-20.55011191 18.82285391 -19.20318525 15.13574298 -15.9453125 9.51171875 C-14.6045242 7.2141349 -14.6045242 7.2141349 -15.94921875 4.3125 C-10.39782758 0.51970556 -6.700169 -1.29606032 0 0 Z " fill="#72585C" transform="translate(58.94921875,228.6875)"/>
<path d="M0 0 C1.32 0 2.64 0 4 0 C4 1.65 4 3.3 4 5 C4.495 4.835 4.99 4.67 5.5 4.5 C10.6979446 3.46041108 15.87822809 3.71955702 21 5 C21 3.68 21 2.36 21 1 C21.99 1 22.98 1 24 1 C23.38334341 5.2844786 22.38816051 9.21436438 21 13.3125 C20.4740625 14.88451172 20.4740625 14.88451172 19.9375 16.48828125 C19 19 19 19 18 20 C16.14712498 20.07226502 14.29166122 20.0838122 12.4375 20.0625 C11.42558594 20.05347656 10.41367187 20.04445313 9.37109375 20.03515625 C8.19740234 20.01775391 8.19740234 20.01775391 7 20 C6.74605469 19.35933594 6.49210937 18.71867187 6.23046875 18.05859375 C4.62792872 14.03123661 3.02394347 10.0177998 1.25 6.0625 C0 3 0 3 0 0 Z " fill="#EAE2D5" transform="translate(47,278)"/>
<path d="M0 0 C4.42326378 1.35155282 6.40412982 3.19890438 9 7 C9.33 7.99 9.66 8.98 10 10 C4.36064773 15.75246249 -1.18061138 18.96620102 -9 21 C-9.99 21 -10.98 21 -12 21 C-11.56997296 14.54959446 -9.56258964 8.4248524 -6 3 C-3.390625 1.73828125 -3.390625 1.73828125 -1 1 C-0.67 0.67 -0.34 0.34 0 0 Z " fill="#3B3B42" transform="translate(78,276)"/>
<path d="M0 0 C3.08438116 1.23268521 3.73567092 2.71120967 5.1953125 5.65234375 C5.91994187 7.38729866 6.60793785 9.13802542 7.2578125 10.90234375 C7.63035156 11.753125 8.00289062 12.60390625 8.38671875 13.48046875 C9.2578125 15.90234375 9.2578125 15.90234375 9.2578125 19.90234375 C-0.25930664 18.67432838 -6.51316732 13.89514025 -12.7421875 6.90234375 C-12.0821875 6.57234375 -11.4221875 6.24234375 -10.7421875 5.90234375 C-10.4121875 5.07734375 -10.0821875 4.25234375 -9.7421875 3.40234375 C-7.9185886 -1.15665351 -4.34457901 -0.50989432 0 0 Z " fill="#3D3C44" transform="translate(43.7421875,277.09765625)"/>
<path d="M0 0 C3.02419525 0.58803797 6.01758453 1.22678118 9 2 C9 2.66 9 3.32 9 4 C10.32 4 11.64 4 13 4 C12.67 5.32 12.34 6.64 12 8 C5.73 8 -0.54 8 -7 8 C-7.33 6.68 -7.66 5.36 -8 4 C-4.91190305 2.23537317 -3.76687864 2 0 2 C0 1.34 0 0.68 0 0 Z " fill="#CC8FA1" transform="translate(57,253)"/>
<path d="M0 0 C2.22486868 0.47399397 2.22486868 0.47399397 5.05078125 -0.4375 C9.81031812 -0.83412807 13.13892647 1.80021993 17.05078125 4.3125 C16.39078125 5.6325 15.73078125 6.9525 15.05078125 8.3125 C14.72078125 7.6525 14.39078125 6.9925 14.05078125 6.3125 C8.93682221 3.68246392 4.48709262 3.90308594 -0.94921875 5.3125 C-1.27921875 4.9825 -1.60921875 4.6525 -1.94921875 4.3125 C-6.13232437 4.02728825 -9.20369838 4.38623238 -12.94921875 6.3125 C-13.27921875 6.9725 -13.60921875 7.6325 -13.94921875 8.3125 C-14.60921875 6.9925 -15.26921875 5.6725 -15.94921875 4.3125 C-10.39782758 0.51970556 -6.700169 -1.29606032 0 0 Z " fill="#8E7176" transform="translate(58.94921875,228.6875)"/>
<path d="M0 0 C3.53508103 0.29459009 4.76203444 0.74881413 7.25 3.375 C10.35833958 8.03750937 10.08861318 11.5945958 10 17 C7.6875 16.5625 7.6875 16.5625 5 15 C4.01410585 12.76128839 3.37465084 10.56112375 2.7734375 8.19140625 C1.92148669 5.77754563 0.92178041 4.65103234 -1 3 C-0.67 2.01 -0.34 1.02 0 0 Z " fill="#634F52" transform="translate(70,237)"/>
<path d="M0 0 C0 2.31 0 4.62 0 7 C-4.95 7 -9.9 7 -15 7 C-15 5.02 -15 3.04 -15 1 C-13.95199219 1.01740234 -13.95199219 1.01740234 -12.8828125 1.03515625 C-11.97273438 1.04417969 -11.06265625 1.05320312 -10.125 1.0625 C-8.76761719 1.07990234 -8.76761719 1.07990234 -7.3828125 1.09765625 C-4.54785679 0.98146954 -2.920199 0 0 0 Z " fill="#E36E6A" transform="translate(67,276)"/>
<path d="M0 0 C-1.17139913 2.34279827 -2.35242565 4.67665724 -3.5625 7 C-5.07313143 9.7959527 -5.07313143 9.7959527 -5.375 12.25 C-6 14 -6 14 -8.5625 15.25 C-9.366875 15.4975 -10.17125 15.745 -11 16 C-11.29787234 7.06382979 -11.29787234 7.06382979 -9 4 C-5.65617813 0.83216875 -4.73117792 0 0 0 Z " fill="#665154" transform="translate(50,238)"/>
<path d="M0 0 C3.0625 0.1875 3.0625 0.1875 5.0625 2.1875 C5.0625 3.5075 5.0625 4.8275 5.0625 6.1875 C2.0925 6.1875 -0.8775 6.1875 -3.9375 6.1875 C-3.980221 4.52138095 -3.97813832 2.85367115 -3.9375 1.1875 C-2.9375 0.1875 -2.9375 0.1875 0 0 Z " fill="#4A3C40" transform="translate(58.9375,263.8125)"/>
<path d="M0 0 C2.64 0.33 5.28 0.66 8 1 C7.67 2.32 7.34 3.64 7 5 C4.69 5 2.38 5 0 5 C-0.33 4.01 -0.66 3.02 -1 2 C-0.67 1.34 -0.34 0.68 0 0 Z " fill="#654D51" transform="translate(62,256)"/>
<path d="M0 0 C0.5625 1.9375 0.5625 1.9375 1 4 C0 5 0 5 -3.0625 5.0625 C-4.031875 5.041875 -5.00125 5.02125 -6 5 C-6.33 3.68 -6.66 2.36 -7 1 C-4 0 -4 0 0 0 Z " fill="#5F494C" transform="translate(56,256)"/>
<path d="M0 0 C2.97 0 5.94 0 9 0 C8.34 1.32 7.68 2.64 7 4 C4.69 3.67 2.38 3.34 0 3 C0 2.01 0 1.02 0 0 Z " fill="#E9716C" transform="translate(55,270)"/>
<path d="M0 0 C0.99 0 1.98 0 3 0 C3 2.31 3 4.62 3 7 C1.68 7 0.36 7 -1 7 C-0.67 4.69 -0.34 2.38 0 0 Z " fill="#C2645F" transform="translate(64,276)"/>
<path d="M0 0 C0.66 1.32 1.32 2.64 2 4 C0.6078125 3.7215625 0.6078125 3.7215625 -0.8125 3.4375 C-4.01343771 2.75876119 -4.01343771 2.75876119 -7 4 C-7 3.01 -7 2.02 -7 1 C-4.53721199 -0.231394 -2.7204945 -0.07159196 0 0 Z " fill="#715757" transform="translate(69,244)"/>
<path d="M0 0 C1.32 0.33 2.64 0.66 4 1 C3.67 2.65 3.34 4.3 3 6 C2.01 6 1.02 6 0 6 C0 4.02 0 2.04 0 0 Z " fill="#BE5B58" transform="translate(52,277)"/>
<path d="M0 0 C1.65 0 3.3 0 5 0 C5.66 1.32 6.32 2.64 7 4 C5.6078125 3.7215625 5.6078125 3.7215625 4.1875 3.4375 C0.98656229 2.75876119 0.98656229 2.75876119 -2 4 C-1.34 2.68 -0.68 1.36 0 0 Z " fill="#705757" transform="translate(50,244)"/>
<path d="M0 0 C0.639375 0.2475 1.27875 0.495 1.9375 0.75 C2.2675 1.74 2.5975 2.73 2.9375 3.75 C0.6275 3.75 -1.6825 3.75 -4.0625 3.75 C-4.0625 2.76 -4.0625 1.77 -4.0625 0.75 C-2.0625 -0.25 -2.0625 -0.25 0 0 Z " fill="#5D4F50" transform="translate(67.0625,248.25)"/>
</svg>
